<svg id="visual" viewBox="0 0 1920 1080" width="1920" height="1080" xmlns="http://www.w3.org/2000/svg" xmlns:xlink="http://www.w3.org/1999/xlink" version="1.1"><rect x="0" y="0" width="1920" height="1080" fill="#ff86f4"></rect><defs><linearGradient id="grad1_0" x1="43.8%" y1="100%" x2="100%" y2="0%"><stop offset="14.444444444444446%" stop-color="#6400ff" stop-opacity="1"></stop><stop offset="85.55555555555554%" stop-color="#6400ff" stop-opacity="1"></stop></linearGradient></defs><defs><linearGradient id="grad1_1" x1="43.8%" y1="100%" x2="100%" y2="0%"><stop offset="14.444444444444446%" stop-color="#6400ff" stop-opacity="1"></stop><stop offset="85.55555555555554%" stop-color="#8a16fc" stop-opacity="1"></stop></linearGradient></defs><defs><linearGradient id="grad1_2" x1="43.8%" y1="100%" x2="100%" y2="0%"><stop offset="14.444444444444446%" stop-color="#a729f9" stop-opacity="1"></stop><stop offset="85.55555555555554%" stop-color="#8a16fc" stop-opacity="1"></stop></linearGradient></defs><defs><linearGradient id="grad1_3" x1="43.8%" y1="100%" x2="100%" y2="0%"><stop offset="14.444444444444446%" stop-color="#a729f9" stop-opacity="1"></stop><stop offset="85.55555555555554%" stop-color="#be3cf6" stop-opacity="1"></stop></linearGradient></defs><defs><linearGradient id="grad1_4" x1="43.8%" y1="100%" x2="100%" y2="0%"><stop offset="14.444444444444446%" stop-color="#d24ef4" stop-opacity="1"></stop><stop offset="85.55555555555554%" stop-color="#be3cf6" stop-opacity="1"></stop></linearGradient></defs><defs><linearGradient id="grad1_5" x1="43.8%" y1="100%" x2="100%" y2="0%"><stop offset="14.444444444444446%" stop-color="#d24ef4" stop-opacity="1"></stop><stop offset="85.55555555555554%" stop-color="#e361f3" stop-opacity="1"></stop></linearGradient></defs><defs><linearGradient id="grad1_6" x1="43.8%" y1="100%" x2="100%" y2="0%"><stop offset="14.444444444444446%" stop-color="#f273f3" stop-opacity="1"></stop><stop offset="85.55555555555554%" stop-color="#e361f3" stop-opacity="1"></stop></linearGradient></defs><defs><linearGradient id="grad1_7" x1="43.8%" y1="100%" x2="100%" y2="0%"><stop offset="14.444444444444446%" stop-color="#f273f3" stop-opacity="1"></stop><stop offset="85.55555555555554%" stop-color="#ff86f4" stop-opacity="1"></stop></linearGradient></defs><defs><linearGradient id="grad2_0" x1="0%" y1="100%" x2="56.3%" y2="0%"><stop offset="14.444444444444446%" stop-color="#6400ff" stop-opacity="1"></stop><stop offset="85.55555555555554%" stop-color="#6400ff" stop-opacity="1"></stop></linearGradient></defs><defs><linearGradient id="grad2_1" x1="0%" y1="100%" x2="56.3%" y2="0%"><stop offset="14.444444444444446%" stop-color="#8a16fc" stop-opacity="1"></stop><stop offset="85.55555555555554%" stop-color="#6400ff" stop-opacity="1"></stop></linearGradient></defs><defs><linearGradient id="grad2_2" x1="0%" y1="100%" x2="56.3%" y2="0%"><stop offset="14.444444444444446%" stop-color="#8a16fc" stop-opacity="1"></stop><stop offset="85.55555555555554%" stop-color="#a729f9" stop-opacity="1"></stop></linearGradient></defs><defs><linearGradient id="grad2_3" x1="0%" y1="100%" x2="56.3%" y2="0%"><stop offset="14.444444444444446%" stop-color="#be3cf6" stop-opacity="1"></stop><stop offset="85.55555555555554%" stop-color="#a729f9" stop-opacity="1"></stop></linearGradient></defs><defs><linearGradient id="grad2_4" x1="0%" y1="100%" x2="56.3%" y2="0%"><stop offset="14.444444444444446%" stop-color="#be3cf6" stop-opacity="1"></stop><stop offset="85.55555555555554%" stop-color="#d24ef4" stop-opacity="1"></stop></linearGradient></defs><defs><linearGradient id="grad2_5" x1="0%" y1="100%" x2="56.3%" y2="0%"><stop offset="14.444444444444446%" stop-color="#e361f3" stop-opacity="1"></stop><stop offset="85.55555555555554%" stop-color="#d24ef4" stop-opacity="1"></stop></linearGradient></defs><defs><linearGradient id="grad2_6" x1="0%" y1="100%" x2="56.3%" y2="0%"><stop offset="14.444444444444446%" stop-color="#e361f3" stop-opacity="1"></stop><stop offset="85.55555555555554%" stop-color="#f273f3" stop-opacity="1"></stop></linearGradient></defs><defs><linearGradient id="grad2_7" x1="0%" y1="100%" x2="56.3%" y2="0%"><stop offset="14.444444444444446%" stop-color="#ff86f4" stop-opacity="1"></stop><stop offset="85.55555555555554%" stop-color="#f273f3" stop-opacity="1"></stop></linearGradient></defs><g transform="translate(1920, 1080)"><path d="M-648 0C-576 -80.9 -504 -161.8 -459 -265C-414 -368.2 -396 -493.6 -324 -561.2C-252 -628.7 -126 -638.4 0 -648L0 0Z" fill="#f97df4"></path><path d="M-567 0C-504 -70.8 -441 -141.6 -401.6 -231.9C-362.2 -322.2 -346.5 -431.9 -283.5 -491C-220.5 -550.1 -110.3 -558.6 0 -567L0 0Z" fill="#eb6af3"></path><path d="M-486 0C-432 -60.7 -378 -121.4 -344.2 -198.8C-310.5 -276.1 -297 -370.2 -243 -420.9C-189 -471.5 -94.5 -478.8 0 -486L0 0Z" fill="#db57f4"></path><path d="M-405 0C-360 -50.6 -315 -101.1 -286.9 -165.6C-258.7 -230.1 -247.5 -308.5 -202.5 -350.7C-157.5 -393 -78.8 -399 0 -405L0 0Z" fill="#c845f5"></path><path d="M-324 0C-288 -40.5 -252 -80.9 -229.5 -132.5C-207 -184.1 -198 -246.8 -162 -280.6C-126 -314.4 -63 -319.2 0 -324L0 0Z" fill="#b333f7"></path><path d="M-243 0C-216 -30.3 -189 -60.7 -172.1 -99.4C-155.2 -138.1 -148.5 -185.1 -121.5 -210.4C-94.5 -235.8 -47.3 -239.4 0 -243L0 0Z" fill="#9920fa"></path><path d="M-162 0C-144 -20.2 -126 -40.5 -114.7 -66.3C-103.5 -92 -99 -123.4 -81 -140.3C-63 -157.2 -31.5 -159.6 0 -162L0 0Z" fill="#790afd"></path><path d="M-81 0C-72 -10.1 -63 -20.2 -57.4 -33.1C-51.7 -46 -49.5 -61.7 -40.5 -70.1C-31.5 -78.6 -15.8 -79.8 0 -81L0 0Z" fill="#6400ff"></path></g><g transform="translate(0, 0)"><path d="M648 0C554.3 68.4 460.6 136.8 418.3 241.5C376 346.2 385.1 487.4 324 561.2C262.9 635 131.4 641.5 0 648L0 0Z" fill="#f97df4"></path><path d="M567 0C485 59.8 403 119.7 366 211.3C329 303 337 426.5 283.5 491C230 555.6 115 561.3 0 567L0 0Z" fill="#eb6af3"></path><path d="M486 0C415.7 51.3 345.4 102.6 313.7 181.1C282 259.7 288.9 365.5 243 420.9C197.1 476.2 98.6 481.1 0 486L0 0Z" fill="#db57f4"></path><path d="M405 0C346.4 42.7 287.9 85.5 261.4 150.9C235 216.4 240.7 304.6 202.5 350.7C164.3 396.9 82.1 400.9 0 405L0 0Z" fill="#c845f5"></path><path d="M324 0C277.1 34.2 230.3 68.4 209.1 120.7C188 173.1 192.6 243.7 162 280.6C131.4 317.5 65.7 320.7 0 324L0 0Z" fill="#b333f7"></path><path d="M243 0C207.9 25.6 172.7 51.3 156.9 90.6C141 129.8 144.4 182.8 121.5 210.4C98.6 238.1 49.3 240.6 0 243L0 0Z" fill="#9920fa"></path><path d="M162 0C138.6 17.1 115.1 34.2 104.6 60.4C94 86.6 96.3 121.8 81 140.3C65.7 158.7 32.9 160.4 0 162L0 0Z" fill="#790afd"></path><path d="M81 0C69.3 8.5 57.6 17.1 52.3 30.2C47 43.3 48.1 60.9 40.5 70.1C32.9 79.4 16.4 80.2 0 81L0 0Z" fill="#6400ff"></path></g></svg>