<svg id="visual" viewBox="0 0 1920 1080" width="1920" height="1080" xmlns="http://www.w3.org/2000/svg" xmlns:xlink="http://www.w3.org/1999/xlink" version="1.1"><path d="M0 261L45.7 278.7C91.3 296.3 182.7 331.7 274.2 338.2C365.7 344.7 457.3 322.3 548.8 291C640.3 259.7 731.7 219.3 823 229C914.3 238.7 1005.7 298.3 1097 329.3C1188.3 360.3 1279.7 362.7 1371.2 353.5C1462.7 344.3 1554.3 323.7 1645.8 293.2C1737.3 262.7 1828.7 222.3 1874.3 202.2L1920 182L1920 0L1874.3 0C1828.7 0 1737.3 0 1645.8 0C1554.3 0 1462.7 0 1371.2 0C1279.7 0 1188.3 0 1097 0C1005.7 0 914.3 0 823 0C731.7 0 640.3 0 548.8 0C457.3 0 365.7 0 274.2 0C182.7 0 91.3 0 45.7 0L0 0Z" fill="#390090" stroke-linecap="round" stroke-linejoin="miter"></path></svg>